<?xml version="1.0" encoding="utf-8"?>
<!-- Generator: Adobe Illustrator 16.0.0, SVG Export Plug-In . SVG Version: 6.00 Build 0)  -->
<!DOCTYPE svg PUBLIC "-//W3C//DTD SVG 1.1//EN" "http://www.w3.org/Graphics/SVG/1.1/DTD/svg11.dtd">
<svg version="1.1" id="Layer_1" focusable="false" xmlns="http://www.w3.org/2000/svg" xmlns:xlink="http://www.w3.org/1999/xlink"
	 x="0px" y="0px" width="850.389px" height="1190.551px" viewBox="0 0 850.389 1190.551"
	 enable-background="new 0 0 850.389 1190.551" xml:space="preserve">
<path fill="#823CFD" d="M800.518,264.641c-80.905,4.592-241.712,21.305-340.982,82.072c-6.851,4.192-10.733,11.648-10.733,19.443
	v537.207c0,17.053,18.646,27.83,34.37,19.916c102.135-51.407,249.846-65.433,322.882-69.271c24.936-1.314,44.32-21.305,44.32-45.266
	V309.967C850.389,283.82,827.712,263.106,800.518,264.641z M390.839,346.714c-99.256-60.768-260.062-77.466-340.968-82.072
	C22.677,263.106,0,283.82,0,309.967v498.792c0,23.977,19.385,43.966,44.32,45.266c73.065,3.839,220.851,17.879,322.985,69.315
	c15.68,7.898,34.267-2.864,34.267-19.872V365.891C401.573,358.081,397.704,350.921,390.839,346.714z"/>
</svg>
