<?xml version="1.0" encoding="utf-8"?>
<!-- Generator: Adobe Illustrator 16.0.0, SVG Export Plug-In . SVG Version: 6.00 Build 0)  -->
<!DOCTYPE svg PUBLIC "-//W3C//DTD SVG 1.1//EN" "http://www.w3.org/Graphics/SVG/1.1/DTD/svg11.dtd">
<svg version="1.1" id="Layer_1" xmlns="http://www.w3.org/2000/svg" xmlns:xlink="http://www.w3.org/1999/xlink" x="0px" y="0px"
	 width="1024px" height="1024px" viewBox="0 0 1024 1024" enable-background="new 0 0 1024 1024" xml:space="preserve">
<path fill="#FFFFFF" d="M832,320c-8.75,0-17.125,1.406-25.625,2.562C757.625,208.25,644.125,128,512,128
	c-132.156,0-245.562,80.25-294.406,194.562C209.156,321.406,200.781,320,192,320C85.938,320,0,405.938,0,512s85.938,192,192,192
	c20.53,0,39.875-4.25,58.375-10.375C284.469,731.375,331.312,756.75,384,764.5v-65.25c-49.845-10.375-91.595-42.812-112.625-87.875
	C249.531,629,222.219,640,192,640c-70.656,0-128-57.375-128-128c0-70.656,57.344-128,128-128c25.28,0,48.625,7.562,68.405,20.094
	C281.344,283.781,385.594,192,512,192c126.5,0,229.75,92.219,250.5,212.75c20-13,43.875-20.75,69.5-20.75
	c70.625,0,128,57.344,128,128c0,70.625-57.375,128-128,128c-10.25,0-20-1.5-29.625-3.75C773.438,677.125,725.938,704,672,704
	c-11.062,0-21.625-1.625-32-4v64.938c10.438,1.688,21.062,3.062,32,3.062c61.188,0,116.5-24.625,156.938-64.438
	C830,703.625,830.875,704,832,704c106.062,0,192-85.938,192-192S938.062,320,832,320z M576,512H448v320H320l192,192l192-192H576V512
	z"/>
</svg>
