<?xml version="1.0" encoding="utf-8"?>
<!-- Generator: Adobe Illustrator 16.0.0, SVG Export Plug-In . SVG Version: 6.00 Build 0)  -->
<!DOCTYPE svg PUBLIC "-//W3C//DTD SVG 1.1//EN" "http://www.w3.org/Graphics/SVG/1.1/DTD/svg11.dtd">
<svg version="1.1" id="Layer_1" focusable="false" xmlns="http://www.w3.org/2000/svg" xmlns:xlink="http://www.w3.org/1999/xlink"
	 x="0px" y="0px" width="850.389px" height="1190.551px" viewBox="0 0 850.389 1190.551"
	 enable-background="new 0 0 850.389 1190.551" xml:space="preserve">
<path fill="#027EFB" stroke="#FFFFFF" stroke-width="11.7804" stroke-miterlimit="10" d="M837.494,643.105
	c3.175-2.523,7.895-0.163,7.895,3.825v166.424c0,21.565-17.496,39.062-39.062,39.062H467.784c-21.567,0-39.064-17.497-39.064-39.062
	V647.011c0-4.069,4.641-6.348,7.896-3.825c18.229,14.161,42.399,32.146,125.407,92.449c17.171,12.532,46.144,38.9,75.033,38.737
	c29.053,0.243,58.592-26.692,75.113-38.737C795.179,675.33,819.266,657.266,837.494,643.105z M637.056,748.247
	c18.879,0.327,46.062-23.763,59.733-33.69C804.78,636.188,813,629.351,837.903,609.82c4.722-3.661,7.485-9.356,7.485-15.381v-15.461
	c0-21.567-17.496-39.064-39.062-39.064H467.784c-21.567,0-39.064,17.497-39.064,39.064v15.461c0,6.024,2.769,11.638,7.487,15.381
	c24.902,19.45,33.123,26.367,141.114,104.737C590.992,724.486,618.175,748.574,637.056,748.247L637.056,748.247z"/>
<path fill="#002CBF" stroke="#FFFFFF" stroke-width="9.4243" stroke-miterlimit="10" d="M512.196,1037.932l-109.57-46.958
	c-9.615-4.098-20.782-1.346-27.394,6.75l-48.524,59.285c-76.152-35.905-137.438-97.193-173.345-173.348l59.286-48.524
	c8.114-6.6,10.868-17.778,6.75-27.394l-46.958-109.569c-4.54-10.406-15.834-16.114-26.903-13.599L43.792,708.055
	c-10.653,2.461-18.2,11.95-18.196,22.884c0,250.938,203.39,453.938,453.936,453.938c10.938,0.007,20.433-7.54,22.895-18.196
	l23.479-101.745C528.402,1053.811,522.651,1042.481,512.196,1037.932L512.196,1037.932z"/>
<g>
	<path fill="#002CFF" d="M448.177,197.836c0,98.893-179.062,378.149-179.062,378.149S90.053,296.729,90.053,197.836
		s80.17-179.062,179.062-179.062C368.008,18.775,448.177,98.945,448.177,197.836z"/>
	<circle fill="#FFFFFF" cx="269.115" cy="196.658" r="71.271"/>
</g>
</svg>
