<?xml version="1.0" encoding="utf-8"?>
<!-- Generator: Adobe Illustrator 16.0.0, SVG Export Plug-In . SVG Version: 6.00 Build 0)  -->
<!DOCTYPE svg PUBLIC "-//W3C//DTD SVG 1.1//EN" "http://www.w3.org/Graphics/SVG/1.1/DTD/svg11.dtd">
<svg version="1.1" id="Layer_1" focusable="false" xmlns="http://www.w3.org/2000/svg" xmlns:xlink="http://www.w3.org/1999/xlink"
	 x="0px" y="0px" width="850.389px" height="1190.551px" viewBox="0 0 850.389 1190.551"
	 enable-background="new 0 0 850.389 1190.551" xml:space="preserve">
<path fill="#EC008B" d="M413.93,436.21L141.733,660.398v241.961c0,13.045,10.576,23.623,23.621,23.623l165.441-0.428
	c13-0.066,23.504-10.625,23.504-23.625V760.628c0-13.047,10.574-23.625,23.621-23.625h94.488c13.045,0,23.623,10.576,23.623,23.625
	v141.199c-0.041,13.047,10.5,23.656,23.547,23.695c0.025,0,0.049,0,0.074,0l165.381,0.459c13.047,0,23.623-10.576,23.623-23.623
	V660.234L436.52,436.21C429.926,430.896,420.522,430.896,413.93,436.21L413.93,436.21z M843.895,588.587L720.469,486.849v-204.49
	c0-9.785-7.934-17.717-17.717-17.717h-82.678c-9.785,0-17.715,7.934-17.715,17.717v107.199L470.18,280.81
	c-26.16-21.527-63.898-21.527-90.057,0L6.406,588.587c-7.541,6.232-8.602,17.4-2.369,24.943c0.002,0.004,0.004,0.006,0.006,0.008
	l37.646,45.768c6.215,7.559,17.381,8.646,24.938,2.43c0.01-0.008,0.02-0.016,0.029-0.023l347.271-286.033
	c6.592-5.312,15.996-5.312,22.588,0l347.289,286.033c7.539,6.238,18.707,5.186,24.945-2.354c0-0.002,0.004-0.008,0.006-0.01
	l37.646-45.768c6.213-7.557,5.121-18.721-2.438-24.936C843.94,588.626,843.918,588.609,843.895,588.587L843.895,588.587z"/>
</svg>
