<?xml version="1.0" encoding="utf-8"?>
<!-- Generator: Adobe Illustrator 16.0.0, SVG Export Plug-In . SVG Version: 6.00 Build 0)  -->
<!DOCTYPE svg PUBLIC "-//W3C//DTD SVG 1.1//EN" "http://www.w3.org/Graphics/SVG/1.1/DTD/svg11.dtd">
<svg version="1.1" id="Layer_1" focusable="false" xmlns="http://www.w3.org/2000/svg" xmlns:xlink="http://www.w3.org/1999/xlink"
	 x="0px" y="0px" width="850.389px" height="1190.551px" viewBox="0 0 850.389 1190.551"
	 enable-background="new 0 0 850.389 1190.551" xml:space="preserve">
<g>
	<path fill="#465AFC" d="M658.823,1169.41c0,8.925-7.238,16.162-16.167,16.162l-209.09-248.064L218.77,1185.573
		c-8.927,0-16.164-7.237-16.164-16.162V35.548c0-8.928,7.236-16.165,16.164-16.165h423.886c8.929,0,16.167,7.237,16.167,16.165
		V1169.41z"/>
	<path fill="#FFFFFF" stroke="#465AFC" stroke-width="59.8777" stroke-miterlimit="10" d="M761.472,431.421
		c0,186.605-151.276,337.881-337.889,337.881c-186.605,0-337.881-151.275-337.881-337.881S236.978,93.539,423.583,93.539
		C610.196,93.539,761.472,244.816,761.472,431.421z"/>
</g>
</svg>
